<svg id="visual" viewBox="0 0 960 100" width="960" height="100" xmlns="http://www.w3.org/2000/svg" xmlns:xlink="http://www.w3.org/1999/xlink" version="1.1"><rect x="0" y="0" width="960" height="100" fill="#23272A"></rect><path d="M0 21L40 21.5C80 22 160 23 240 26.3C320 29.7 400 35.3 480 39.7C560 44 640 47 720 49.5C800 52 880 54 920 55L960 56L960 101L920 101C880 101 800 101 720 101C640 101 560 101 480 101C400 101 320 101 240 101C160 101 80 101 40 101L0 101Z" fill="#4d525c"></path><path d="M0 41L40 42.3C80 43.7 160 46.3 240 50.2C320 54 400 59 480 60.7C560 62.3 640 60.7 720 60C800 59.3 880 59.7 920 59.8L960 60L960 101L920 101C880 101 800 101 720 101C640 101 560 101 480 101C400 101 320 101 240 101C160 101 80 101 40 101L0 101Z" fill="#444a53"></path><path d="M0 75L40 75C80 75 160 75 240 69.8C320 64.7 400 54.3 480 51.7C560 49 640 54 720 52.7C800 51.3 880 43.7 920 39.8L960 36L960 101L920 101C880 101 800 101 720 101C640 101 560 101 480 101C400 101 320 101 240 101C160 101 80 101 40 101L0 101Z" fill="#3c424a"></path><path d="M0 67L40 64.5C80 62 160 57 240 57.7C320 58.3 400 64.7 480 70.3C560 76 640 81 720 79.3C800 77.7 880 69.3 920 65.2L960 61L960 101L920 101C880 101 800 101 720 101C640 101 560 101 480 101C400 101 320 101 240 101C160 101 80 101 40 101L0 101Z" fill="#343a41"></path><path d="M0 94L40 93C80 92 160 90 240 90.7C320 91.3 400 94.7 480 94.2C560 93.7 640 89.3 720 88.8C800 88.3 880 91.7 920 93.3L960 95L960 101L920 101C880 101 800 101 720 101C640 101 560 101 480 101C400 101 320 101 240 101C160 101 80 101 40 101L0 101Z" fill="#2d3338"></path></svg>